<svg width="300" height="300" viewBox="0 0 300 300" fill="none" xmlns="http://www.w3.org/2000/svg">
<path d="M150 300C232.843 300 300 232.843 300 150C300 67.1573 232.843 0 150 0C67.1573 0 0 67.1573 0 150C0 232.843 67.1573 300 150 300Z" fill="#ECCC68"/>
<path d="M298.42 171.8L196.96 70.3401L110 141.99L123 161.5L63 229.99L131.91 298.9C137.84 299.61 143.88 299.99 150 299.99C225.44 299.99 287.86 244.3 298.42 171.79V171.8Z" fill="#FEA502"/>
<path d="M177.8 162H177.75C169.67 166.46 160.39 169 150.5 169C140.61 169 131.33 166.46 123.25 162H122C58 172 63 230 63 230H238.36C238.36 230 240.6 169 177.8 162Z" fill="#EFF2F9"/>
<path d="M150.5 159C181.704 159 207 133.704 207 102.5C207 71.2959 181.704 46 150.5 46C119.296 46 94 71.2959 94 102.5C94 133.704 119.296 159 150.5 159Z" fill="#EFF2F9"/>
</svg>
