<svg width="300" height="300" viewBox="0 0 300 300" fill="none" xmlns="http://www.w3.org/2000/svg">
<g clip-path="url(#clip0_117_128)">
<path d="M150 300C232.843 300 300 232.843 300 150C300 67.1573 232.843 0 150 0C67.1573 0 0 67.1573 0 150C0 232.843 67.1573 300 150 300Z" fill="#E4EBF1"/>
<g filter="url(#filter0_dd_117_128)">
<path d="M298.42 171.8L196.96 70.3401L110 141.99L123 161.5L63 229.99L131.91 298.9C137.84 299.61 143.88 299.99 150 299.99C225.44 299.99 287.86 244.3 298.42 171.79V171.8Z" fill="#6E7F8D"/>
</g>
<g filter="url(#filter1_dd_117_128)">
<path d="M177.8 162H177.75C169.67 166.46 160.39 169 150.5 169C140.61 169 131.33 166.46 123.25 162H122C58 172 63 230 63 230H238.36C238.36 230 240.6 169 177.8 162Z" fill="#F0F0F8"/>
<path d="M150.5 159C181.704 159 207 133.704 207 102.5C207 71.2959 181.704 46 150.5 46C119.296 46 94 71.2959 94 102.5C94 133.704 119.296 159 150.5 159Z" fill="#F0F0F8"/>
</g>
</g>
<defs>
<filter id="filter0_dd_117_128" x="48" y="55.3401" width="255.42" height="252.65" filterUnits="userSpaceOnUse" color-interpolation-filters="sRGB">
<feFlood flood-opacity="0" result="BackgroundImageFix"/>
<feColorMatrix in="SourceAlpha" type="matrix" values="0 0 0 0 0 0 0 0 0 0 0 0 0 0 0 0 0 0 127 0" result="hardAlpha"/>
<feOffset dx="-5" dy="-5"/>
<feGaussianBlur stdDeviation="5"/>
<feComposite in2="hardAlpha" operator="out"/>
<feColorMatrix type="matrix" values="0 0 0 0 0.980392 0 0 0 0 0.984314 0 0 0 0 1 0 0 0 1 0"/>
<feBlend mode="normal" in2="BackgroundImageFix" result="effect1_dropShadow_117_128"/>
<feColorMatrix in="SourceAlpha" type="matrix" values="0 0 0 0 0 0 0 0 0 0 0 0 0 0 0 0 0 0 127 0" result="hardAlpha"/>
<feOffset dy="4"/>
<feGaussianBlur stdDeviation="2"/>
<feComposite in2="hardAlpha" operator="out"/>
<feColorMatrix type="matrix" values="0 0 0 0 0 0 0 0 0 0 0 0 0 0 0 0 0 0 0.25 0"/>
<feBlend mode="normal" in2="effect1_dropShadow_117_128" result="effect2_dropShadow_117_128"/>
<feBlend mode="normal" in="SourceGraphic" in2="effect2_dropShadow_117_128" result="shape"/>
</filter>
<filter id="filter1_dd_117_128" x="47.9087" y="31" width="195.461" height="207" filterUnits="userSpaceOnUse" color-interpolation-filters="sRGB">
<feFlood flood-opacity="0" result="BackgroundImageFix"/>
<feColorMatrix in="SourceAlpha" type="matrix" values="0 0 0 0 0 0 0 0 0 0 0 0 0 0 0 0 0 0 127 0" result="hardAlpha"/>
<feOffset dx="-5" dy="-5"/>
<feGaussianBlur stdDeviation="5"/>
<feComposite in2="hardAlpha" operator="out"/>
<feColorMatrix type="matrix" values="0 0 0 0 0.980392 0 0 0 0 0.984314 0 0 0 0 1 0 0 0 1 0"/>
<feBlend mode="normal" in2="BackgroundImageFix" result="effect1_dropShadow_117_128"/>
<feColorMatrix in="SourceAlpha" type="matrix" values="0 0 0 0 0 0 0 0 0 0 0 0 0 0 0 0 0 0 127 0" result="hardAlpha"/>
<feOffset dy="4"/>
<feGaussianBlur stdDeviation="2"/>
<feComposite in2="hardAlpha" operator="out"/>
<feColorMatrix type="matrix" values="0 0 0 0 0 0 0 0 0 0 0 0 0 0 0 0 0 0 0.25 0"/>
<feBlend mode="normal" in2="effect1_dropShadow_117_128" result="effect2_dropShadow_117_128"/>
<feBlend mode="normal" in="SourceGraphic" in2="effect2_dropShadow_117_128" result="shape"/>
</filter>
<clipPath id="clip0_117_128">
<rect width="300" height="300" fill="white"/>
</clipPath>
</defs>
</svg>
