<?xml version="1.0" encoding="UTF-8"?><svg id="Layer_2" xmlns="http://www.w3.org/2000/svg" viewBox="0 0 127.03 133"><defs><style>.cls-1{fill:#eccc68;}.cls-2{fill:#fea502;}</style></defs><g id="Layer_2-2"><g><path class="cls-2" d="M.02,61.78v71.22s25,.78,21-29.22c0,0,9,16,46,16,0,0,51.51-1,59.76-58h-21.58s-.42,35.09-41.8,37.04c0,0-36.82,.96-41.6-37.04H.02Z"/><path class="cls-1" d="M22.33,56.78c-1.69-18,12.69-31,12.69-31l24,23h7l25-24c14,10,14.54,32,14.54,32h21.46C127.78,20.17,95.02,1.78,95.02,1.78c-5-4-10,0-10,0l-18,16h-9S43.02,1.78,40.02,.78s-7,0-7,0C-1.98,20.78,.02,56.17,.02,56.17l22.31,.6Z"/></g></g></svg>